<svg width="170" height="170" viewBox="0 0 170 170" fill="none" xmlns="http://www.w3.org/2000/svg">
<g clip-path="url(#clip0_1_1443)">
<path d="M112.771 70.3127C101.616 70.3127 90.2873 69.8637 79.6778 66.932C69.2679 64.0664 59.71 58.5067 51.1904 52.0755C45.5994 47.8893 40.5409 44.5482 33.2859 45.05C26.2004 45.4397 19.4288 48.0786 13.9704 52.5773C4.74525 60.58 6.143 75.3837 9.81708 85.7899C15.3681 101.465 32.2076 112.36 46.5445 119.451C63.0912 127.652 81.2619 132.38 99.4991 135.153C115.473 137.57 135.987 139.313 149.831 128.973C162.557 119.465 166.045 97.7411 162.93 83.0827C162.17 78.7508 159.841 74.8436 156.381 72.0955C147.448 65.6114 134.123 69.9429 124.086 70.1542C120.359 70.3127 116.578 70.3127 112.771 70.3127Z" fill="#F2F2F2"/>
<path d="M86 162C112.51 162 134 160.209 134 158C134 155.791 112.51 154 86 154C59.4903 154 38 155.791 38 158C38 160.209 59.4903 162 86 162Z" fill="#F2F2F2"/>
<path d="M110.5 11C111.328 11 112 10.3284 112 9.5C112 8.67157 111.328 8 110.5 8C109.672 8 109 8.67157 109 9.5C109 10.3284 109.672 11 110.5 11Z" fill="#CFCFCF"/>
<path d="M51.5 137C52.3284 137 53 136.328 53 135.5C53 134.672 52.3284 134 51.5 134C50.6716 134 50 134.672 50 135.5C50 136.328 50.6716 137 51.5 137Z" fill="#CFCFCF"/>
<path d="M125 144V151" stroke="#BABABA" stroke-linecap="round" stroke-linejoin="round"/>
<path d="M124 147H129" stroke="#BABABA" stroke-linecap="round" stroke-linejoin="round"/>
<path d="M83 16C68.9435 16 55.4628 21.5697 45.5233 31.4839C35.5839 41.398 30 54.8445 30 68.8653C30 107.668 83 144 83 144C83 144 136 108.223 136 68.8653C136 54.8445 130.416 41.398 120.477 31.4839C110.537 21.5697 97.0565 16 83 16ZM83 88.6897C78.8722 88.6897 74.837 87.4694 71.4041 85.1831C67.9712 82.8967 65.2947 79.6468 63.7127 75.8439C62.1306 72.041 61.714 67.8557 62.5154 63.8167C63.3169 59.7777 65.3005 56.0663 68.2156 53.1512C71.1307 50.2362 74.8465 48.2482 78.8937 47.4386C82.9409 46.6289 87.1379 47.0339 90.9545 48.6023C94.7711 50.1707 98.0361 52.8321 100.337 56.2505C102.638 59.6688 103.872 63.6907 103.882 67.808C103.878 73.331 101.677 78.6269 97.7619 82.5323C93.8466 86.4378 88.5372 88.6334 83 88.6369V88.6897Z" fill="white" stroke="#BABABA" stroke-linecap="round" stroke-linejoin="round"/>
<path d="M28 26V31" stroke="#BABABA" stroke-linecap="round" stroke-linejoin="round"/>
<path d="M24 28H30" stroke="#BABABA" stroke-linecap="round" stroke-linejoin="round"/>
<path d="M146 41V47" stroke="#BABABA" stroke-linecap="round" stroke-linejoin="round"/>
<path d="M144 44H150" stroke="#BABABA" stroke-linecap="round" stroke-linejoin="round"/>
<path d="M92 59L77 74" stroke="#BABABA" stroke-linecap="round" stroke-linejoin="round"/>
<path d="M77 59L92 74" stroke="#BABABA" stroke-linecap="round" stroke-linejoin="round"/>
</g>
<defs>
<clipPath id="clip0_1_1443">
<rect width="170" height="170" fill="white"/>
</clipPath>
</defs>
</svg>
